<svg width="40" height="40" viewBox="0 0 40 40" fill="none" xmlns="http://www.w3.org/2000/svg">
<path fill-rule="evenodd" clip-rule="evenodd" d="M11.6667 3.33333C9.45657 3.33333 7.33695 4.21131 5.77415 5.77411C4.21135 7.33691 3.33337 9.45653 3.33337 11.6667V28.3333C3.33337 30.5435 4.21135 32.6631 5.77415 34.2259C7.33695 35.7887 9.45657 36.6667 11.6667 36.6667H28.3334C30.5435 36.6667 32.6631 35.7887 34.2259 34.2259C35.7887 32.6631 36.6667 30.5435 36.6667 28.3333V11.6667C36.6667 9.45653 35.7887 7.33691 34.2259 5.77411C32.6631 4.21131 30.5435 3.33333 28.3334 3.33333H11.6667ZM26.2167 17.8067C26.3664 17.6469 26.4832 17.4592 26.5604 17.2543C26.6375 17.0494 26.6736 16.8313 26.6665 16.6125C26.6593 16.3936 26.6092 16.1783 26.5189 15.9789C26.4285 15.7794 26.2998 15.5997 26.14 15.45C25.9803 15.3003 25.7926 15.1835 25.5877 15.1064C25.3828 15.0292 25.1647 14.9931 24.9458 15.0003C24.727 15.0074 24.5117 15.0575 24.3122 15.1478C24.1128 15.2382 23.9331 15.3669 23.7834 15.5267L18.645 21.01L16.1067 18.755C15.7741 18.4785 15.3471 18.3422 14.9159 18.3747C14.4846 18.4072 14.0829 18.6061 13.7956 18.9294C13.5083 19.2526 13.3578 19.6749 13.3761 20.107C13.3943 20.5391 13.5798 20.9471 13.8934 21.245L17.6434 24.5783C17.9679 24.8666 18.392 25.0169 18.8255 24.9972C19.2591 24.9776 19.6679 24.7897 19.965 24.4733L26.2167 17.8067Z" fill="#D213E3"/>
</svg>
