<svg width="40" height="40" viewBox="0 0 40 40" fill="none" xmlns="http://www.w3.org/2000/svg">
<path fill-rule="evenodd" clip-rule="evenodd" d="M11.1616 11.1617C12.872 9.4512 15.0419 8.27373 17.4082 7.77206C19.7745 7.27039 22.2356 7.46606 24.4929 8.33536C26.7502 9.20465 28.7068 10.7102 30.1254 12.6695C31.544 14.6287 32.3636 16.9575 32.485 19.3733C34.0542 19.78 35.4216 20.7442 36.3316 22.0858C37.2416 23.4273 37.6319 25.0543 37.4295 26.6627C37.2271 28.2711 36.4459 29.7507 35.232 30.825C34.018 31.8993 32.4543 32.4947 30.8333 32.5H10.8333C8.86665 32.5012 6.96295 31.8068 5.45894 30.5397C3.95492 29.2725 2.94752 27.5143 2.61493 25.576C2.28233 23.6377 2.64597 21.6442 3.64153 19.9481C4.63709 18.2521 6.20041 16.9628 8.05496 16.3083C8.65456 14.3648 9.72121 12.5977 11.1616 11.1617ZM26.1783 19.5117C26.4819 19.1973 26.6499 18.7763 26.6461 18.3393C26.6423 17.9023 26.467 17.4843 26.158 17.1753C25.849 16.8663 25.431 16.691 24.994 16.6872C24.557 16.6834 24.136 16.8514 23.8216 17.155L18.3333 22.6433L16.1783 20.4883C15.864 20.1847 15.4429 20.0167 15.006 20.0205C14.569 20.0243 14.1509 20.1996 13.8419 20.5086C13.5329 20.8176 13.3576 21.2357 13.3538 21.6727C13.35 22.1097 13.518 22.5307 13.8216 22.845L17.155 26.1783C17.4675 26.4908 17.8913 26.6663 18.3333 26.6663C18.7752 26.6663 19.1991 26.4908 19.5116 26.1783L26.1783 19.5117Z" fill="#D213E3"/>
</svg>
