<svg width="40" height="40" viewBox="0 0 40 40" fill="none" xmlns="http://www.w3.org/2000/svg">
<path d="M12.7344 25.9375H4.0625C3.71875 25.9375 3.4375 26.2188 3.4375 26.5625V28.4375C3.4375 28.7812 3.71875 29.0625 4.0625 29.0625H10.8594V35.9375C10.8594 36.2812 11.1406 36.5625 11.4844 36.5625H13.3594C13.7031 36.5625 13.9844 36.2812 13.9844 35.9375V27.1875C13.9844 26.4961 13.4258 25.9375 12.7344 25.9375ZM13.3594 3.4375H11.4844C11.1406 3.4375 10.8594 3.71875 10.8594 4.0625V10.9375H4.0625C3.71875 10.9375 3.4375 11.2188 3.4375 11.5625V13.4375C3.4375 13.7812 3.71875 14.0625 4.0625 14.0625H12.7344C13.4258 14.0625 13.9844 13.5039 13.9844 12.8125V4.0625C13.9844 3.71875 13.7031 3.4375 13.3594 3.4375ZM35.9375 25.9375H27.2656C26.5742 25.9375 26.0156 26.4961 26.0156 27.1875V35.9375C26.0156 36.2812 26.2969 36.5625 26.6406 36.5625H28.5156C28.8594 36.5625 29.1406 36.2812 29.1406 35.9375V29.0625H35.9375C36.2812 29.0625 36.5625 28.7812 36.5625 28.4375V26.5625C36.5625 26.2188 36.2812 25.9375 35.9375 25.9375ZM35.9375 10.9375H29.1406V4.0625C29.1406 3.71875 28.8594 3.4375 28.5156 3.4375H26.6406C26.2969 3.4375 26.0156 3.71875 26.0156 4.0625V12.8125C26.0156 13.5039 26.5742 14.0625 27.2656 14.0625H35.9375C36.2812 14.0625 36.5625 13.7812 36.5625 13.4375V11.5625C36.5625 11.2188 36.2812 10.9375 35.9375 10.9375Z" fill="#EAEAEA"/>
</svg>
