<svg width="45" height="40" viewBox="0 0 45 40" fill="none" xmlns="http://www.w3.org/2000/svg">
<g clip-path="url(#clip0_227_192)">
<path d="M3.38061 34.2417L5.35266 37.6479C5.76245 38.3651 6.35144 38.9286 7.04297 39.3383C9.02376 36.8241 10.4023 34.8947 11.1792 33.5502C11.9675 32.1859 12.9364 30.0515 14.0859 27.1476C10.9879 26.7397 8.64035 26.5359 7.04314 26.5359C5.51004 26.5359 3.16245 26.7397 0 27.1476C0 27.9415 0.204891 28.7354 0.614672 29.4526L3.38061 34.2417Z" fill="#0066DA"/>
<path d="M37.6735 39.3383C38.3652 38.9286 38.9542 38.3651 39.3638 37.648L40.1834 36.2395L44.102 29.4526C44.5042 28.7509 44.716 27.9563 44.7165 27.1476C41.5357 26.7397 39.1925 26.5359 37.6865 26.5359C36.068 26.5359 33.7245 26.7397 30.6562 27.1476C31.7921 30.0674 32.7483 32.2017 33.5247 33.5502C34.3078 34.9107 35.6907 36.84 37.6735 39.3383Z" fill="#EA4335"/>
<path d="M22.3583 12.8054C24.65 10.0377 26.2294 7.90341 27.0963 6.40279C27.7944 5.19441 28.5628 3.26498 29.4012 0.614672C28.7097 0.204891 27.9158 0 27.0963 0H17.6203C16.8007 0 16.007 0.230568 15.3153 0.614672C16.3819 3.65432 17.287 5.81764 18.0304 7.10445C18.8521 8.52664 20.2947 10.4269 22.3583 12.8054Z" fill="#00832D"/>
<path d="M30.6305 27.1476H14.0859L7.04309 39.3383C7.73444 39.7481 8.52833 39.953 9.34789 39.953H35.3685C36.1881 39.953 36.9821 39.7224 37.6735 39.3382L30.6305 27.1476Z" fill="#2684FC"/>
<path d="M22.3583 12.8054L15.3155 0.614847C14.6238 1.02463 14.0348 1.58795 13.625 2.30515L0.614672 24.8426C0.212424 25.5443 0.000531436 26.3388 0 27.1476H14.0859L22.3583 12.8054Z" fill="#00AC47"/>
<path d="M37.5968 13.5738L31.0915 2.30498C30.6819 1.58777 30.0927 1.02445 29.4012 0.614672L22.3584 12.8054L30.6305 27.1476H44.691C44.691 26.3535 44.4861 25.5598 44.0763 24.8426L37.5968 13.5738Z" fill="#FFBA00"/>
</g>
<defs>
<clipPath id="clip0_227_192">
<rect width="44.7162" height="40" fill="white"/>
</clipPath>
</defs>
</svg>
