<svg width="40" height="40" viewBox="0 0 40 40" fill="none" xmlns="http://www.w3.org/2000/svg">
<path d="M37 33.2222V6.77778C37 4.7 35.3 3 33.2222 3H6.77778C4.7 3 3 4.7 3 6.77778V33.2222C3 35.3 4.7 37 6.77778 37H33.2222C35.3 37 37 35.3 37 33.2222ZM14.1444 23.74L18.1111 28.5189L23.9667 20.9822C24.3444 20.4911 25.1 20.4911 25.4778 21.0011L32.1078 29.8411C32.213 29.9814 32.2771 30.1483 32.2929 30.323C32.3086 30.4976 32.2754 30.6733 32.197 30.8301C32.1185 30.987 31.9979 31.119 31.8487 31.2112C31.6995 31.3034 31.5276 31.3522 31.3522 31.3522H8.70444C7.91111 31.3522 7.47667 30.4456 7.96778 29.8222L12.6711 23.7778C13.03 23.2867 13.7478 23.2678 14.1444 23.74Z" fill="#D213E3"/>
</svg>
