<svg width="40" height="40" viewBox="0 0 40 40" fill="none" xmlns="http://www.w3.org/2000/svg">
<path d="M36.125 24.4414L33.5664 22.2539C33.6875 21.5117 33.75 20.7539 33.75 19.9961C33.75 19.2383 33.6875 18.4805 33.5664 17.7383L36.125 15.5508C36.318 15.3856 36.4561 15.1655 36.521 14.9199C36.5859 14.6743 36.5745 14.4148 36.4883 14.1758L36.4531 14.0742C35.7488 12.1056 34.694 10.2806 33.3399 8.6875L33.2695 8.60547C33.1053 8.41231 32.8863 8.27346 32.6416 8.20722C32.3968 8.14097 32.1377 8.15044 31.8984 8.23438L28.7227 9.36328C27.5508 8.40234 26.2422 7.64453 24.8281 7.11328L24.2149 3.79297C24.1686 3.54313 24.0474 3.31329 23.8674 3.13398C23.6874 2.95466 23.4571 2.83436 23.207 2.78906L23.1016 2.76953C21.0664 2.40234 18.9258 2.40234 16.8906 2.76953L16.7852 2.78906C16.5352 2.83436 16.3048 2.95466 16.1248 3.13398C15.9448 3.31329 15.8236 3.54313 15.7774 3.79297L15.1602 7.12891C13.7574 7.66027 12.451 8.41768 11.293 9.37109L8.09376 8.23438C7.85456 8.14977 7.59528 8.13996 7.35038 8.20625C7.10547 8.27253 6.88654 8.41177 6.72266 8.60547L6.65235 8.6875C5.2998 10.2817 4.24523 12.1064 3.53907 14.0742L3.50391 14.1758C3.32813 14.6641 3.47266 15.2109 3.8672 15.5508L6.45704 17.7617C6.33595 18.4961 6.27735 19.2461 6.27735 19.9922C6.27735 20.7422 6.33595 21.4922 6.45704 22.2227L3.8672 24.4336C3.67421 24.5988 3.53609 24.8188 3.4712 25.0645C3.4063 25.3101 3.41771 25.5696 3.50391 25.8086L3.53907 25.9102C4.2461 27.8789 5.29298 29.6953 6.65235 31.2969L6.72266 31.3789C6.88694 31.5721 7.10588 31.7109 7.35064 31.7772C7.5954 31.8434 7.85449 31.8339 8.09376 31.75L11.293 30.6133C12.457 31.5703 13.7578 32.3281 15.1602 32.8555L15.7774 36.1914C15.8236 36.4412 15.9448 36.6711 16.1248 36.8504C16.3048 37.0297 16.5352 37.15 16.7852 37.1953L16.8906 37.2148C18.9445 37.584 21.0477 37.584 23.1016 37.2148L23.207 37.1953C23.4571 37.15 23.6874 37.0297 23.8674 36.8504C24.0474 36.6711 24.1686 36.4412 24.2149 36.1914L24.8281 32.8711C26.2416 32.3412 27.5576 31.581 28.7227 30.6211L31.8984 31.75C32.1376 31.8346 32.3969 31.8444 32.6418 31.7781C32.8867 31.7118 33.1057 31.5726 33.2695 31.3789L33.3399 31.2969C34.6992 29.6914 35.7461 27.8789 36.4531 25.9102L36.4883 25.8086C36.6641 25.3281 36.5195 24.7813 36.125 24.4414ZM30.793 18.1992C30.8906 18.7891 30.9414 19.3945 30.9414 20C30.9414 20.6055 30.8906 21.2109 30.793 21.8008L30.5352 23.3672L33.4531 25.8633C33.0108 26.8824 32.4524 27.8471 31.7891 28.7383L28.1641 27.4531L26.9375 28.4609C26.0039 29.2266 24.9649 29.8281 23.8399 30.25L22.3516 30.8086L21.6524 34.5977C20.5491 34.7227 19.4353 34.7227 18.332 34.5977L17.6328 30.8008L16.1563 30.2344C15.043 29.8125 14.0078 29.2109 13.082 28.4492L11.8555 27.4375L8.20704 28.7344C7.54298 27.8398 6.98829 26.875 6.54298 25.8594L9.4922 23.3398L9.23829 21.7773C9.14454 21.1953 9.09376 20.5938 9.09376 20C9.09376 19.4023 9.14063 18.8047 9.23829 18.2227L9.4922 16.6602L6.54298 14.1406C6.98438 13.1211 7.54298 12.1602 8.20704 11.2656L11.8555 12.5625L13.082 11.5508C14.0078 10.7891 15.043 10.1875 16.1563 9.76562L17.6367 9.20703L18.3359 5.41016C19.4336 5.28516 20.5547 5.28516 21.6563 5.41016L22.3555 9.19922L23.8438 9.75781C24.9649 10.1797 26.0078 10.7812 26.9414 11.5469L28.168 12.5547L31.793 11.2695C32.457 12.1641 33.0117 13.1289 33.457 14.1445L30.5391 16.6406L30.793 18.1992ZM20 12.7344C16.2031 12.7344 13.125 15.8125 13.125 19.6094C13.125 23.4062 16.2031 26.4844 20 26.4844C23.7969 26.4844 26.875 23.4062 26.875 19.6094C26.875 15.8125 23.7969 12.7344 20 12.7344ZM23.0938 22.7031C22.688 23.1101 22.2058 23.4328 21.6748 23.6526C21.1439 23.8725 20.5747 23.9853 20 23.9844C18.832 23.9844 17.7344 23.5273 16.9063 22.7031C16.4993 22.2974 16.1766 21.8151 15.9567 21.2842C15.7369 20.7532 15.6241 20.184 15.625 19.6094C15.625 18.4414 16.082 17.3437 16.9063 16.5156C17.7344 15.6875 18.832 15.2344 20 15.2344C21.168 15.2344 22.2656 15.6875 23.0938 16.5156C23.5007 16.9214 23.8234 17.4036 24.0433 17.9346C24.2632 18.4655 24.3759 19.0347 24.375 19.6094C24.375 20.7773 23.918 21.875 23.0938 22.7031Z" fill="#EAEAEA"/>
</svg>
