<svg width="40" height="40" viewBox="0 0 40 40" fill="none" xmlns="http://www.w3.org/2000/svg">
<path d="M3.33337 24.1667C3.33337 25.1516 3.52737 26.1269 3.90428 27.0368C4.28119 27.9467 4.83363 28.7735 5.53007 29.47C6.9366 30.8765 8.84425 31.6667 10.8334 31.6667H30.8334C32.31 31.6693 33.7326 31.1119 34.8144 30.1068C35.8962 29.1018 36.5565 27.7238 36.6622 26.251C36.768 24.7782 36.3112 23.3201 35.3841 22.1708C34.457 21.0215 33.1285 20.2666 31.6667 20.0583C31.683 17.2229 30.6661 14.4787 28.8062 12.3385C26.9462 10.1983 24.3705 8.80874 21.5606 8.42952C18.7506 8.0503 15.8987 8.70739 13.538 10.278C11.1773 11.8485 9.4693 14.2251 8.73337 16.9633C7.17524 17.4184 5.80668 18.3664 4.83304 19.6652C3.8594 20.964 3.33319 22.5435 3.33337 24.1667Z" stroke="#EAEAEA" stroke-width="2" stroke-linejoin="round"/>
<path d="M25 18.3333L18.3333 25L15 21.6667" stroke="#EAEAEA" stroke-width="2" stroke-linecap="round" stroke-linejoin="round"/>
</svg>
