<svg width="40" height="40" viewBox="0 0 40 40" fill="none" xmlns="http://www.w3.org/2000/svg">
<path d="M28.002 15.6C27.4239 15.6 26.8515 15.7139 26.3174 15.9351C25.7833 16.1563 25.2981 16.4806 24.8893 16.8893C24.4805 17.2981 24.1563 17.7834 23.9351 18.3174C23.7138 18.8515 23.6 19.4239 23.6 20.002C23.6 20.5801 23.7138 21.1525 23.9351 21.6866C24.1563 22.2206 24.4805 22.7059 24.8893 23.1147C25.2981 23.5234 25.7833 23.8477 26.3174 24.0689C26.8515 24.2901 27.4239 24.404 28.002 24.404C29.1695 24.4037 30.289 23.9397 31.1144 23.114C31.9397 22.2883 32.4032 21.1685 32.403 20.001C32.4027 18.8335 31.9387 17.714 31.113 16.8886C30.2872 16.0633 29.1675 15.5997 28 15.6H28.002ZM12.002 15.6C11.4239 15.6 10.8515 15.7139 10.3174 15.9351C9.78333 16.1563 9.29805 16.4806 8.88929 16.8893C8.48053 17.2981 8.15628 17.7834 7.93506 18.3174C7.71384 18.8515 7.59998 19.4239 7.59998 20.002C7.59998 20.5801 7.71384 21.1525 7.93506 21.6866C8.15628 22.2206 8.48053 22.7059 8.88929 23.1147C9.29805 23.5234 9.78333 23.8477 10.3174 24.0689C10.8515 24.2901 11.4239 24.404 12.002 24.404C13.1695 24.4037 14.289 23.9397 15.1144 23.114C15.9397 22.2883 16.4032 21.1685 16.403 20.001C16.4027 18.8335 15.9387 17.714 15.113 16.8886C14.2872 16.0633 13.1695 15.5997 12.002 15.6Z" fill="#EAEAEA"/>
</svg>
