<svg width="40" height="40" viewBox="0 0 40 40" fill="none" xmlns="http://www.w3.org/2000/svg">
<path d="M2.5 6.25C2.5 5.25544 2.89509 4.30161 3.59835 3.59835C4.30161 2.89509 5.25544 2.5 6.25 2.5H13.75C14.7446 2.5 15.6984 2.89509 16.4017 3.59835C17.1049 4.30161 17.5 5.25544 17.5 6.25V13.75C17.5 14.7446 17.1049 15.6984 16.4017 16.4017C15.6984 17.1049 14.7446 17.5 13.75 17.5H6.25C5.25544 17.5 4.30161 17.1049 3.59835 16.4017C2.89509 15.6984 2.5 14.7446 2.5 13.75V6.25ZM22.5 6.25C22.5 5.25544 22.8951 4.30161 23.5983 3.59835C24.3016 2.89509 25.2554 2.5 26.25 2.5H33.75C34.7446 2.5 35.6984 2.89509 36.4016 3.59835C37.1049 4.30161 37.5 5.25544 37.5 6.25V13.75C37.5 14.7446 37.1049 15.6984 36.4016 16.4017C35.6984 17.1049 34.7446 17.5 33.75 17.5H26.25C25.2554 17.5 24.3016 17.1049 23.5983 16.4017C22.8951 15.6984 22.5 14.7446 22.5 13.75V6.25ZM2.5 26.25C2.5 25.2554 2.89509 24.3016 3.59835 23.5983C4.30161 22.8951 5.25544 22.5 6.25 22.5H13.75C14.7446 22.5 15.6984 22.8951 16.4017 23.5983C17.1049 24.3016 17.5 25.2554 17.5 26.25V33.75C17.5 34.7446 17.1049 35.6984 16.4017 36.4016C15.6984 37.1049 14.7446 37.5 13.75 37.5H6.25C5.25544 37.5 4.30161 37.1049 3.59835 36.4016C2.89509 35.6984 2.5 34.7446 2.5 33.75V26.25ZM22.5 26.25C22.5 25.2554 22.8951 24.3016 23.5983 23.5983C24.3016 22.8951 25.2554 22.5 26.25 22.5H33.75C34.7446 22.5 35.6984 22.8951 36.4016 23.5983C37.1049 24.3016 37.5 25.2554 37.5 26.25V33.75C37.5 34.7446 37.1049 35.6984 36.4016 36.4016C35.6984 37.1049 34.7446 37.5 33.75 37.5H26.25C25.2554 37.5 24.3016 37.1049 23.5983 36.4016C22.8951 35.6984 22.5 34.7446 22.5 33.75V26.25Z" fill="#D213E3"/>
</svg>
